<svg xmlns="http://www.w3.org/2000/svg" version="1.1" xmlns:xlink="http://www.w3.org/1999/xlink" xmlns:svgjs="http://svgjs.dev/svgjs" width="1920" height="1080" preserveAspectRatio="none" viewBox="0 0 1920 1080"><g mask="url(&quot;#SvgjsMask1109&quot;)" fill="none"><rect width="1920" height="1080" x="0" y="0" fill="#0e2a47"></rect><path d="M1167.36,1111.661C1251.437,1104.526,1314.268,1044.653,1358.326,972.69C1405.073,896.335,1445.945,804.933,1403.366,726.177C1359.357,644.777,1259.882,621.011,1167.36,619.472C1071.356,617.875,970.04,637.824,917.353,718.095C859.977,805.509,854.512,922.429,910.578,1010.689C963.435,1093.897,1069.136,1119.997,1167.36,1111.661" fill="rgba(28, 83, 142, 0.4)" class="triangle-float1"></path><path d="M2013.507,362.903C2095.693,359.733,2168.873,318.627,2214.089,249.924C2265.054,172.486,2301.016,75.146,2256.358,-6.092C2210.555,-89.413,2108.511,-118.796,2013.507,-114.958C1925.529,-111.404,1847.78,-63.219,1802.417,12.246C1755.498,90.301,1737.237,188.481,1784.206,266.505C1830.038,342.64,1924.707,366.328,2013.507,362.903" fill="rgba(28, 83, 142, 0.4)" class="triangle-float3"></path><path d="M249.3171035870319 1047.08671627902L54.2252367826697 830.4152474647055-162.4462320316448 1025.5071142690676 32.645634772717386 1242.1785830833824z" fill="rgba(28, 83, 142, 0.4)" class="triangle-float2"></path><path d="M1356.36,459.97C1447.608,458.707,1518.594,387.625,1560.651,306.637C1599.2,232.403,1595.254,147.198,1557.557,72.528C1515.09,-11.592,1450.569,-95.936,1356.36,-98.025C1259.714,-100.168,1183.836,-22.442,1139.091,63.249C1097.881,142.169,1099.265,234.346,1142.03,312.433C1186.683,393.967,1263.408,461.257,1356.36,459.97" fill="rgba(28, 83, 142, 0.4)" class="triangle-float1"></path><path d="M1997.566256653619 190.7176517414585L2012.845269472533-27.782411313856585 1794.345206417218-43.06142413277067 1779.066193598304 175.4386389225444z" fill="rgba(28, 83, 142, 0.4)" class="triangle-float3"></path><path d="M1569.5486883809408 661.203296771921L1643.6201954334144 562.9070869083163 1459.1401271117704 500.94793126140837z" fill="rgba(28, 83, 142, 0.4)" class="triangle-float3"></path><path d="M0.3316210725284776 487.88550667811785L289.25045705426425 426.7616401146667 119.88837393334302 231.93285031122048z" fill="rgba(28, 83, 142, 0.4)" class="triangle-float2"></path><path d="M607.1570291949523 478.91985782443726L489.95384074550043 365.7380543672035 493.9752257377186 596.1230462738891z" fill="rgba(28, 83, 142, 0.4)" class="triangle-float1"></path><path d="M453.12632253885204 1156.1161925597978L643.7124034325984 1090.4921421994231 387.5022721784773 965.5301116660514z" fill="rgba(28, 83, 142, 0.4)" class="triangle-float1"></path><path d="M-6.747701398642736-20.919609011979922L-30.129203448086063 99.3677912559018 161.9926479784582 74.29634419612594z" fill="rgba(28, 83, 142, 0.4)" class="triangle-float1"></path></g><defs><mask id="SvgjsMask1109"><rect width="1920" height="1080" fill="#ffffff"></rect></mask><style>
                @keyframes float1 {
                    0%{transform: translate(0, 0)}
                    50%{transform: translate(-10px, 0)}
                    100%{transform: translate(0, 0)}
                }

                .triangle-float1 {
                    animation: float1 5s infinite;
                }

                @keyframes float2 {
                    0%{transform: translate(0, 0)}
                    50%{transform: translate(-5px, -5px)}
                    100%{transform: translate(0, 0)}
                }

                .triangle-float2 {
                    animation: float2 4s infinite;
                }

                @keyframes float3 {
                    0%{transform: translate(0, 0)}
                    50%{transform: translate(0, -10px)}
                    100%{transform: translate(0, 0)}
                }

                .triangle-float3 {
                    animation: float3 6s infinite;
                }
            </style></defs></svg>